<?xml version="1.0" encoding="UTF-8"?>
<svg xmlns="http://www.w3.org/2000/svg" xmlns:xlink="http://www.w3.org/1999/xlink" width="140" height="91.284" viewBox="0 0 140 91.284">
  <defs>
    <clipPath id="clip-path">
      <rect id="Rectangle_77" data-name="Rectangle 77" width="140" height="91.284" fill="#cb7f33" stroke="#cb7f33" stroke-linecap="round" stroke-linejoin="round" stroke-width="1.5"></rect>
    </clipPath>
  </defs>
  <g id="Group_406" data-name="Group 406" transform="translate(0 0)">
    <g id="Group_405" data-name="Group 405" transform="translate(0 0)" clip-path="url(#clip-path)">
      <path id="Path_524" data-name="Path 524" d="M123.9,90.455H94.42a4.713,4.713,0,0,1-4.749-4.665V69.5L85.134,60,30.025,41.29a1.885,1.885,0,1,1,1.212-3.57L87.1,56.685a1.887,1.887,0,0,1,1.1.974l5.062,10.6a1.855,1.855,0,0,1,.185.81V85.79a.954.954,0,0,0,.98.9H123.9a1.09,1.09,0,0,0,.175-.013c-8.64-10.381-15.336-18.1-20.475-23.617a6.662,6.662,0,0,0-2.876-1.545,1.89,1.89,0,0,1-1.165-1l-4.384-9.18A4.549,4.549,0,0,0,92.552,49L78.068,44.089a1.89,1.89,0,0,1-1.263-1.532L72.067,7.641a3.869,3.869,0,0,0-3.715-3.871H29.814A3.835,3.835,0,0,0,26.1,7.712v17.7A1.883,1.883,0,0,1,24.22,27.3H7.427c-2.469,0-3.643.614-3.643,4.1V62.554a6.809,6.809,0,0,0,.405,2.752l4.32,6.208a2.156,2.156,0,0,1,.209.39.274.274,0,0,0,.264.162h7.567a1.885,1.885,0,1,1,0,3.769H8.982a4.084,4.084,0,0,1-3.666-2.309L.987,67.3a2.01,2.01,0,0,1-.168-.3,10.148,10.148,0,0,1-.8-4.608l-.006-31c0-5.221,2.493-7.869,7.413-7.869H22.335V7.712A7.608,7.608,0,0,1,29.814,0H68.353a7.583,7.583,0,0,1,7.465,7.284l4.565,33.608,13.383,4.54a8.34,8.34,0,0,1,4.812,4.276l4.037,8.455a9.636,9.636,0,0,1,3.741,2.32c5.217,5.6,12,13.421,20.737,23.921a3.592,3.592,0,0,1,.537,3.85,4.006,4.006,0,0,1-3.73,2.2" transform="translate(0 0.001)" fill="#cb7f33" stroke="#cb7f33" stroke-linecap="round" stroke-linejoin="round" stroke-width="1.5"></path>
      <path id="Path_525" data-name="Path 525" d="M20.675,20.621,50.6,30.777l-2.933-22.2H20.675Zm32.185,14.8a1.911,1.911,0,0,1-.6-.1L18.186,23.757a1.88,1.88,0,0,1-1.28-1.785V6.693a1.883,1.883,0,0,1,1.885-1.885H49.315a1.883,1.883,0,0,1,1.868,1.638L54.728,33.29a1.885,1.885,0,0,1-1.868,2.132" transform="translate(14.957 4.254)" fill="#cb7f33" stroke="#cb7f33" stroke-linecap="round" stroke-linejoin="round" stroke-width="1.5"></path>
      <path id="Path_526" data-name="Path 526" d="M23.328,35.705A11.778,11.778,0,1,0,35.106,47.483,11.793,11.793,0,0,0,23.328,35.705m0,27.325A15.547,15.547,0,1,1,38.875,47.483,15.563,15.563,0,0,1,23.328,63.03" transform="translate(6.884 28.255)" fill="#cb7f33" stroke="#cb7f33" stroke-linecap="round" stroke-linejoin="round" stroke-width="1.5"></path>
      <path id="Path_527" data-name="Path 527" d="M43.717,35.705A11.778,11.778,0,1,0,55.495,47.483,11.791,11.791,0,0,0,43.717,35.705m0,27.325A15.547,15.547,0,1,1,59.264,47.483,15.563,15.563,0,0,1,43.717,63.03" transform="translate(24.924 28.255)" fill="#cb7f33" stroke="#cb7f33" stroke-linecap="round" stroke-linejoin="round" stroke-width="1.5"></path>
      <path id="Path_528" data-name="Path 528" d="M35.271,42.006H24.163a1.885,1.885,0,1,1,0-3.769H35.271a1.885,1.885,0,0,1,0,3.769" transform="translate(19.71 33.829)" fill="#cb7f33" stroke="#cb7f33" stroke-linecap="round" stroke-linejoin="round" stroke-width="1.5"></path>
      <path id="Path_529" data-name="Path 529" d="M90.519,64.38a1.883,1.883,0,0,1-1.651-2.791,13.749,13.749,0,0,0-9.61-20.134,1.89,1.89,0,0,1-1.306-.929,18.457,18.457,0,0,0-23.666-7.788A1.884,1.884,0,1,1,52.734,29.3a22.035,22.035,0,0,1,9.141-1.962A22.266,22.266,0,0,1,80.793,37.923,17.524,17.524,0,0,1,92.173,63.4a1.888,1.888,0,0,1-1.655.976" transform="translate(45.672 24.19)" fill="#cb7f33" stroke="#cb7f33" stroke-linecap="round" stroke-linejoin="round" stroke-width="1.5"></path>
    </g>
  </g>
</svg>
