<?xml version="1.0" encoding="UTF-8"?>
<svg xmlns="http://www.w3.org/2000/svg" width="30" height="30" viewBox="0 0 30 30">
  <g id="Group_485" data-name="Group 485" transform="translate(-41.437 -38.215)">
    <path id="Path_40" data-name="Path 40" d="M13.5,9A4.5,4.5,0,0,1,18,13.5a1.5,1.5,0,0,0,3,0A7.5,7.5,0,0,0,13.5,6a1.5,1.5,0,1,0,0,3Z" transform="translate(44.437 38.215)" fill="#a4b29a"></path>
    <path id="Path_41" data-name="Path 41" d="M13.5,5A10.5,10.5,0,0,1,24,15.5a1.5,1.5,0,0,0,3,0A13.5,13.5,0,0,0,13.5,2a1.5,1.5,0,1,0,0,3Z" transform="translate(44.437 36.215)" fill="#a4b29a"></path>
    <path id="Path_42" data-name="Path 42" d="M31.625,22.865a1.5,1.5,0,0,0-1.08-.975l-9-2.055a1.5,1.5,0,0,0-1.38.39c-.21.2-.225.21-1.2,2.07a14.865,14.865,0,0,1-7.3-7.335c1.905-.96,1.92-.96,2.115-1.185a1.5,1.5,0,0,0,.39-1.38L12.11,3.5a1.5,1.5,0,0,0-.975-1.08,5.685,5.685,0,0,0-1.08-.27A5.91,5.91,0,0,0,8.9,2,6.9,6.9,0,0,0,2,8.9,23.13,23.13,0,0,0,25.1,32,6.9,6.9,0,0,0,32,25.1a7.155,7.155,0,0,0-.09-1.14A6.51,6.51,0,0,0,31.625,22.865ZM25.1,29A20.115,20.115,0,0,1,5,8.9,3.915,3.915,0,0,1,8.9,5h.495L11,11.96l-.81.42c-1.29.675-2.31,1.215-1.77,2.385A17.775,17.775,0,0,0,19.19,25.58c1.26.51,1.755-.435,2.43-1.74l.435-.825L29,24.6v.5A3.915,3.915,0,0,1,25.1,29Z" transform="translate(39.437 36.215)" fill="#a4b29a"></path>
  </g>
</svg>
