<?xml version="1.0" encoding="UTF-8"?>
<svg xmlns="http://www.w3.org/2000/svg" xmlns:xlink="http://www.w3.org/1999/xlink" id="Group_657" data-name="Group 657" width="45.635" height="50" viewBox="0 0 45.635 50">
  <defs>
    <clipPath id="clip-path">
      <rect id="Rectangle_33" data-name="Rectangle 33" width="45.635" height="50" fill="#2c4b2e"></rect>
    </clipPath>
  </defs>
  <g id="Group_328" data-name="Group 328" clip-path="url(#clip-path)">
    <path id="Path_485" data-name="Path 485" d="M9.718,43.128a1.417,1.417,0,0,0-.31-.676c-1.333-1.579-7.354-9.946,1.707-23.029A42.16,42.16,0,0,0,9.3,28.72a.284.284,0,0,0,.206.3.287.287,0,0,0,.342-.15c4.569-9,14.186-12.163,16.067-12.707a.548.548,0,0,0,.36-.729C24.549,11.044,13.062,2.583,9.582.094A.5.5,0,0,0,9.011.086.491.491,0,0,0,8.8.608c.781,3.335-.922,6.8-3.077,11.192C3.467,16.4.655,22.126.054,29.541A17,17,0,0,0,4.288,41.965a25.718,25.718,0,0,0,5.953,5.27.281.281,0,0,0,.417-.323,32.066,32.066,0,0,1-.94-3.784" transform="translate(0 0)" fill="#2c4b2e"></path>
    <path id="Path_486" data-name="Path 486" d="M59.649,17.308a.819.819,0,0,0-.7-.53.863.863,0,0,0-.82.427c-1.917,3.27-6.947,5.613-12.771,8.325-4.686,2.182-10,4.656-14.458,8.04-4.033,3.059-5.929,7.628-5.637,13.582a31.523,31.523,0,0,0,2.232,9.82.25.25,0,0,0,.293.149.256.256,0,0,0,.194-.275c-.63-6.515.718-11.794,4-15.691,4.664-5.529,11.92-6.834,15.274-7.14-9.1,3.365-12.518,8.975-13.573,11.257-1.931,4.175-1.9,8.946.094,14.182a.838.838,0,0,0,.718.535c.306.023.831.051,1.525.051,3.382,0,10.787-.683,16.584-6.063,5.4-5.009,8.132-12.81,8.132-23.189,0-8.764-.592-12.169-1.09-13.482" transform="translate(-15.103 -10.042)" fill="#2c4b2e"></path>
  </g>
</svg>
