<?xml version="1.0" encoding="UTF-8"?>
<svg xmlns="http://www.w3.org/2000/svg" xmlns:xlink="http://www.w3.org/1999/xlink" width="140" height="143.104" viewBox="0 0 140 143.104">
  <defs>
    <clipPath id="clip-path">
      <rect id="Rectangle_76" data-name="Rectangle 76" width="140" height="143.104" fill="#cb7f33"></rect>
    </clipPath>
  </defs>
  <g id="Group_404" data-name="Group 404" transform="translate(-1062 -912)">
    <g id="Group_403" data-name="Group 403" transform="translate(1062 912)">
      <g id="Group_402" data-name="Group 402" clip-path="url(#clip-path)">
        <path id="Path_516" data-name="Path 516" d="M384.664,61.9a2.362,2.362,0,0,1-.4-.034,2.41,2.41,0,0,1-1.981-2.771c1.123-6.738,2.985-10.323,5.861-11.282,10.708-3.7,17.117-14.415,19.534-23.2,2.316-8.421,1.489-16.332-2.155-20.649A2.409,2.409,0,1,1,409.2.855c4.727,5.6,5.892,14.956,3.12,25.035-2.743,9.971-10.129,22.166-22.629,26.49-.039.013-1.539.791-2.656,7.51a2.412,2.412,0,0,1-2.375,2.014Z" transform="translate(-284.57 0)" fill="#cb7f33"></path>
        <path id="Path_517" data-name="Path 517" d="M334.263,59.22a2.457,2.457,0,0,1-.5-.052,2.409,2.409,0,0,1-1.86-2.856c1.024-4.835.721-7.628.29-9.12-2.4-8.675,3.759-15.148,10.095-20.339,6.592-5.438,13.169-12.57,20.133-20.12q2.7-2.92,5.523-5.957a2.409,2.409,0,1,1,3.517,3.292q-2.82,3.017-5.5,5.932c-7.078,7.673-13.763,14.922-20.614,20.576-7.388,6.05-9.855,10.481-8.522,15.3.845,2.908.777,6.764-.208,11.429a2.411,2.411,0,0,1-2.355,1.91Z" transform="translate(-246.907 -0.01)" fill="#cb7f33"></path>
        <path id="Path_518" data-name="Path 518" d="M389.77,98.138a2.409,2.409,0,0,1-.218-4.809c20.08-1.87,31.115-10.6,33.507-26.6a40.42,40.42,0,0,1-10.832,9.677,2.409,2.409,0,0,1-2.442-4.152c5.129-3.018,9.872-8.122,14.1-15.17a2.409,2.409,0,0,1,4.474,1.187C428.88,82.3,415.972,95.709,390,98.126a2.188,2.188,0,0,1-.227.012Z" transform="translate(-288.375 -41.625)" fill="#cb7f33"></path>
        <path id="Path_519" data-name="Path 519" d="M205.8,298.237a7.074,7.074,0,0,1-4.645-1.756,7.177,7.177,0,0,1-1.471-9.185,226.35,226.35,0,0,0,27.969-69.508c.011-.051.025-.1.039-.151a12.792,12.792,0,0,1,24.758,6.418c-8.362,30.967-22.46,55.271-41.924,72.334a7,7,0,0,1-4.724,1.848ZM232.345,218.9a231.117,231.117,0,0,1-28.534,70.885,2.346,2.346,0,0,0,.447,3.008,2.241,2.241,0,0,0,3.06,0c18.772-16.456,32.372-39.962,40.458-69.9a7.975,7.975,0,0,0-15.429-4Z" transform="translate(-147.885 -155.133)" fill="#cb7f33"></path>
        <path id="Path_520" data-name="Path 520" d="M7.15,203.957a7.154,7.154,0,0,1-4.541-1.632,7.241,7.241,0,0,1-1.6-9.23c13.312-22.24,34.677-40.473,63.505-54.183a12.788,12.788,0,0,1,10.946,23.108c-.054.027-.11.054-.166.076a225.344,225.344,0,0,0-63.347,40,7.122,7.122,0,0,1-4.793,1.861Zm62.616-61.348a8.1,8.1,0,0,0-3.254.687C38.63,156.56,17.956,174.16,5.138,195.575a2.387,2.387,0,0,0,.571,3.063,2.31,2.31,0,0,0,3.011-.124,230.28,230.28,0,0,1,64.629-40.828,8.036,8.036,0,0,0,3.565-10.526,7.862,7.862,0,0,0-7.148-4.551Z" transform="translate(0 -102.583)" fill="#cb7f33"></path>
        <path id="Path_521" data-name="Path 521" d="M285.589,140.286a2.41,2.41,0,0,1-.6-4.743,103.225,103.225,0,0,1,15.049-2.6,2.409,2.409,0,1,1,.506,4.791,98.206,98.206,0,0,0-14.346,2.469A2.388,2.388,0,0,1,285.589,140.286Z" transform="translate(-210.816 -98.962)" fill="#cb7f33"></path>
        <path id="Path_522" data-name="Path 522" d="M313.178,194.812a2.383,2.383,0,0,1-.25-.013,63.792,63.792,0,0,0-8.1-.234h-.062a2.41,2.41,0,0,1-.062-4.818,70.018,70.018,0,0,1,8.721.256,2.411,2.411,0,0,1-.245,4.808Z" transform="translate(-225.089 -141.237)" fill="#cb7f33"></path>
        <path id="Path_523" data-name="Path 523" d="M372.766,144.64a6.241,6.241,0,0,1-3.919-1.436,6.366,6.366,0,1,1,10.443-5.343,6.2,6.2,0,0,1-1.5,4.535,6.394,6.394,0,0,1-4.4,2.21A5.373,5.373,0,0,1,372.766,144.64Zm.167-7.879a.271.271,0,0,0-.113,0,1.545,1.545,0,0,0-1.449,1.667,1.5,1.5,0,0,0,.549,1.058,1.367,1.367,0,0,0,1.018.319,1.683,1.683,0,0,0,1.2-.556,1.41,1.41,0,0,0,.346-1.032,1.592,1.592,0,0,0-1.553-1.46Z" transform="translate(-272.879 -98.226)" fill="#cb7f33"></path>
      </g>
    </g>
  </g>
</svg>
