<?xml version="1.0" encoding="UTF-8"?>
<svg xmlns="http://www.w3.org/2000/svg" width="121.073" height="86.795" viewBox="0 0 121.073 86.795">
  <path id="Path_534" data-name="Path 534" d="M39.1,18.6a2.169,2.169,0,0,1,2.816-1.215,53.442,53.442,0,0,0,18.08,2.66c1.584,0,3.134-.046,4.626-.139a2.2,2.2,0,0,1,2.312,2.03A2.175,2.175,0,0,1,64.9,24.251c-1.578.093-3.214.144-4.891.144h0A56.938,56.938,0,0,1,40.351,21.43,2.168,2.168,0,0,1,39.1,18.6Zm34.114-4.626a15.135,15.135,0,0,1,10.1,2.972,2.168,2.168,0,1,0,4.337,0c0-4.77-8.378-7.308-14.455-7.308a2.168,2.168,0,0,0,0,4.337Zm46.076,68.042A2.169,2.169,0,0,1,117.83,85.8H2.17A2.169,2.169,0,0,1,.714,82.019c6.517-5.932,17.45-22.249,17.45-65.095C18.163,5.939,39.713,0,59.99,0s41.827,5.932,41.827,16.924c0,7,.313,13.224.833,18.879l4.539-1.943c-2.406-6.73-3.625-19.052,6.707-25.673h0a2.139,2.139,0,0,1,1.358-.336c1.423.127,2.677,1.353,3.521,3.469h0a21.809,21.809,0,0,1-3.394,19.046l1.578-.677a2.169,2.169,0,0,1,1.7,3.99l-15.542,6.644c3.082,25.73,10.992,36.987,16.149,41.67ZM110.55,29.981h0a18.559,18.559,0,0,0,4.215-17.005,16.426,16.426,0,0,0-4.233,16.953ZM22.5,16.926c0,3.7,5.955,7.661,15.768,10.13h0a90.361,90.361,0,0,0,21.7,2.446c22.093,0,37.49-6.632,37.49-12.582S82.083,4.338,59.991,4.338,22.5,10.97,22.5,16.926Zm90.334,64.509c-5.36-6.7-11.668-19.289-14.2-42.343a.733.733,0,0,1,0-.161c-.48-4.394-.833-9.135-1-14.322-7.239,6.037-22.759,9.251-37.625,9.251-.994,0-1.995,0-2.995-.052-.052,4.441-.144,14.791,0,18.329A21.05,21.05,0,0,1,52.6,63.7a2.174,2.174,0,0,1-3.469-2.62,17.055,17.055,0,0,0,3.539-8.754c-.18-3.73-.081-14.339-.029-18.74a93.813,93.813,0,0,1-13.044-1.816v9.183a2.168,2.168,0,0,1-4.337,0V30.7a35.64,35.64,0,0,1-12.888-6.094C21.3,57.122,13.538,73.454,7.148,81.435ZM73.87,44.182a2.146,2.146,0,0,0-2.435-1.862,2.168,2.168,0,0,0-1.861,2.434,55.233,55.233,0,0,0,2.573,10.922,8.636,8.636,0,0,1-1.076,6.465L64.884,72.548h0a2.169,2.169,0,0,0,.752,2.973,2.141,2.141,0,0,0,1.1.306,2.178,2.178,0,0,0,1.867-1.059L74.8,64.36h0a12.792,12.792,0,0,0,1.358-10.333A52.1,52.1,0,0,1,73.87,44.182Zm17.115-5.2h0a2.165,2.165,0,1,0-4.331-.006c0,10.2.8,23.279,4.817,27.656h0A2.173,2.173,0,1,0,94.684,63.7c-2.312-2.516-3.7-11.987-3.677-24.736ZM50.869,15.214h0a2.191,2.191,0,0,0,.884-.19,23.811,23.811,0,0,1,10-1.064,2.169,2.169,0,0,0,.295-4.326,26.436,26.436,0,0,0-12.09,1.452,2.168,2.168,0,0,0,.931,4.128ZM34.62,52.976a2.2,2.2,0,0,0-2.636,1.567A65.773,65.773,0,0,0,29,72.373a2.213,2.213,0,0,0,2.1,1.59,1.915,1.915,0,0,0,.578-.087,2.133,2.133,0,0,0,1.48-2.654,86.908,86.908,0,0,1,3-15.612A2.162,2.162,0,0,0,34.62,52.976Z" transform="translate(0.536 0.5)" fill="#cb7f33" stroke="#cb7f33" stroke-linecap="round" stroke-linejoin="round" stroke-width="1"></path>
</svg>
