<svg id="Group_369" data-name="Group 369" xmlns="http://www.w3.org/2000/svg" xmlns:xlink="http://www.w3.org/1999/xlink" width="33.704" height="30" viewBox="0 0 33.704 30">
  <defs>
    <clipPath id="clip-path">
      <rect id="Rectangle_50" data-name="Rectangle 50" width="33.704" height="30" fill="#cb7f33"/>
    </clipPath>
  </defs>
  <g id="Group_366" data-name="Group 366" transform="translate(0 0)" clip-path="url(#clip-path)">
    <path id="Path_493" data-name="Path 493" d="M8.518,0,12.13,2.593A27.164,27.164,0,0,0,9.907,6.258,32.209,32.209,0,0,0,7.685,11.62a16.58,16.58,0,0,0-.833,5.6,6.777,6.777,0,0,1,1.065-.231,7.973,7.973,0,0,1,.88-.046,7.29,7.29,0,0,1,4.444,1.435q1.944,1.435,1.944,4.676a7.178,7.178,0,0,1-1.806,4.861A6.105,6.105,0,0,1,8.518,30q-4.259.093-6.389-2.731A11.278,11.278,0,0,1,0,20.278a23.6,23.6,0,0,1,.926-6.3,34.443,34.443,0,0,1,2.824-6.9A44.205,44.205,0,0,1,8.518,0M27.037,0l3.611,2.593a27.164,27.164,0,0,0-2.222,3.665A32.209,32.209,0,0,0,26.2,11.62a16.58,16.58,0,0,0-.833,5.6,6.777,6.777,0,0,1,1.065-.231,7.973,7.973,0,0,1,.88-.046,7.29,7.29,0,0,1,4.444,1.435Q33.7,19.815,33.7,23.055A7.178,7.178,0,0,1,31.9,27.917,6.105,6.105,0,0,1,27.037,30q-4.259.093-6.389-2.731a11.278,11.278,0,0,1-2.13-6.991,23.6,23.6,0,0,1,.926-6.3,34.443,34.443,0,0,1,2.824-6.9A44.205,44.205,0,0,1,27.037,0" transform="translate(0 -0.001)" fill="#cb7f33"/>
  </g>
</svg>
