<svg xmlns="http://www.w3.org/2000/svg" xmlns:xlink="http://www.w3.org/1999/xlink" width="195.65" height="188.653" viewBox="0 0 195.65 188.653">
  <defs>
    <clipPath id="clip-path">
      <rect id="Rectangle_71" data-name="Rectangle 71" width="195.65" height="188.653" fill="none"/>
    </clipPath>
  </defs>
  <g id="Group_398" data-name="Group 398" clip-path="url(#clip-path)">
    <path id="Path_514" data-name="Path 514" d="M131.845,82.252a2.794,2.794,0,0,0,1.924-3.45c-.027-.089-.054-.175-.089-.261C124.859,56.2,66.4,13.138,48.7.475a2.54,2.54,0,0,0-2.9-.04,2.492,2.492,0,0,0-1.057,2.654c3.975,16.97-4.692,34.617-15.679,56.958C17.566,83.458,3.258,112.6.2,150.334a86.475,86.475,0,0,0,6.127,38.319H34.149c-5.334-20.414-4.509-51.047,22.36-89.825a214.549,214.549,0,0,0-9.222,47.316,1.447,1.447,0,0,0,1.046,1.539,1.464,1.464,0,0,0,1.744-.76c23.223-45.79,72.193-61.9,81.768-64.671" fill="#2c4b2e"/>
    <path id="Path_515" data-name="Path 515" d="M153.881,78.841C130.033,89.929,103,102.518,80.314,119.763c-20.479,15.531-30.146,38.717-28.7,68.89H69.485a85.53,85.53,0,0,1,16.361-30.32C109.583,130.2,146.51,123.554,163.58,122c-46.307,17.124-63.707,45.68-69.093,57.292a77.974,77.974,0,0,0-3.613,9.361H179.64a20,20,0,0,0,16.01-16V57.6C184,64.8,169.505,71.557,153.881,78.841" fill="#2c4b2e"/>
  </g>
</svg>
