<svg xmlns="http://www.w3.org/2000/svg" xmlns:xlink="http://www.w3.org/1999/xlink" width="1565" height="75.291" viewBox="0 0 1565 75.291">
  <defs>
    <clipPath id="clip-path">
      <rect id="Rectangle_78" data-name="Rectangle 78" width="1565" height="75.291" fill="#a1b398"/>
    </clipPath>
  </defs>
  <g id="Group_413" data-name="Group 413" style="isolation: isolate">
    <g id="Group_408" data-name="Group 408" clip-path="url(#clip-path)">
      <path id="Path_530" data-name="Path 530" d="M1565,17.7s-9.609-8.847-10.65-9.715-2.082-1.995-3.209-1.561a3,3,0,0,1-2.516-.1c-.433-.251-2.515-2.072-3.209-1.292a2.666,2.666,0,0,1-2.255,1.041c-.955,0-6.852-3.9-8.761-3.643s-4.51.26-4.77.867-2.689.868-2.689,1.562.087,2.255-1.387,2.255-2.689-.694-4.945-.52-3.643-.174-4.51.607-3.816,3.456-4.337,2.856a11.747,11.747,0,0,1-2.255-3.724c-.26-1.214-.954-3.036-2.689-2.429a10.26,10.26,0,0,1-4.6.781,8.3,8.3,0,0,1-4.077-2.268c-.781-.855-2.6-2.416-3.99-2.416s-2.689.347-2.949,1.041a1.951,1.951,0,0,1-2.342.955c-.78-.434-2.948-2.082-4.944-2a6.013,6.013,0,0,0-4.684,2.949c-.693,1.388-2.948,4.594-3.816,5.9s-9.974,1.65-12.924,1.39-15.873-.954-17.781-.347-5.291,1.3-7.286.52-9.194-3.47-10.061-3.9-6.332-.868-8.413.694-2.168,3.122-3.73,3.209-4.25.174-5.984,1.041-5.291,2.862-7.633,3.209-7.459-.347-10.582.694-10.235,4.771-12.4,4.944-11.97-2.6-14.138-2.948-10.755-.52-12.664.434-7.719,3.383-9.888,3.643-12.23.694-14.4,0-5.9-2.515-7.459-2.428-5.9,2.168-7.373,4.163a7.72,7.72,0,0,1-4.684,3.21,70.708,70.708,0,0,1-10.321,2.255c-2.082.087-7.893.434-9.455,0s-2.6-1.648-4.076-1.214-2.342.34-3.383,1.428-5.2.3-6.159,0-4.423,1.067-5.9.557-1.735-2.766-2.949-2.766-3.123-.173-3.383.694-1.822,1.648-2.429,1.214-3.99-5.638-5.984-5.464-5.465,1.995-6.939,2.341-3.556-1.908-5.725-2.515-2.862-.694-4.857,0a79.924,79.924,0,0,1-11.19,2.255c-1.735.087-2.515,1.735-3.99,3.035s-11.709,5.291-13.1,5.291-2.949-1.3-3.817-1.214-3.99-2.689-4.857-3.035a11.69,11.69,0,0,0-7.113.52c-3.469,1.214-7.2,3.122-8.76,3.729s-12.577-.174-15.526-1.474-3.729-3.21-5.118-3.3-.433.086-1.648.867a5.831,5.831,0,0,1-5.638,0c-2.168-1.128-3.3-1.3-5.464-2.255s-4.858-1.735-6.679-.694-2.342.955-5.117,1.648-4.077.087-4.771-.434-2.776-1.648-3.469-.781-1.909,1.562-4.6,2.949a7.806,7.806,0,0,1-6.852.52,11.117,11.117,0,0,1-5.118-5.551c-1.041-2.429-.954-5.725-2.6-5.638s-3.123.174-3.73-.174-6.592-3.089-7.893-2.326-4.51,1.372-6.592,1.979-5.812-.434-6.5-.867-3.036-1.876-3.817-1.112-.954-.764-2.689,0-2.342.418-4.6,1.112-3.642.693-5.291,3.9-3.122,6.5-5.031,7.373-3.3-.955-4.163-1.735-1.909-1.3-3.9-.52-9.281,3.9-10.669,3.816-4.25-2-5.551-1.909a71.352,71.352,0,0,0-7.806,1.562,18.449,18.449,0,0,1-7.113.606c-2.6-.26-7.2-.867-8.066-1.387s-2.689.607-4.337.867-2.776-2.081-4.51-1.474-5.811,4.25-7.893,5.725-5.638,3.3-6.419,4.423-2.862,2.342-4.337,2.081-8.067-3.383-8.934-4.423-3.643-3.816-5.118-3.47a22.894,22.894,0,0,0-6.245,3.036c-1.648,1.214-3.643,3.036-5.378,2.862s-3.556-2-5.9-2.429-3.9-1.041-6.071-.174-7.98,2.429-9.455,2.429-4.944-1.214-7.286-.954-4.423.694-6.592.867-4.945-.867-6.419.955-2.342,3.383-3.47,3.122-1.648-2.515-3.99-1.908a25.742,25.742,0,0,1-7.98.78c-2.949-.174-11.536-1.648-15.526-3.3s-7.286-1.214-9.455-2.776-6.418-5.638-8.934-6.158-4.164-1.128-5.291-2.862-1.995-1.909-3.643-1.648-3.99-.261-7.026-.434-4.857-.173-5.985.955-.781,1.648-4.337,1.908-7.459-3.556-9.888-3.643-2.081.954-5.291,1.561-8.5-.26-11.363-2.255S809.88,13.1,807.538,13.447a35.678,35.678,0,0,1-5.725.694,20.035,20.035,0,0,1-8.413-1.214c-2.342-.693-2.862-.347-3.816.607s.607.955-3.9,1.042-7.373-1.562-10.148.086-3.3,2.776-4.6,3.643-1.3,4.1-2.516,3.265-1.812-5.206-2.515-4.48c-2.69,2.776-2,4.622-2.69,4.48s-2.6-1.964-4.944-2.312a12.93,12.93,0,0,0-9.628,2.312c-3.3,2.546-9.628,5.322-11.8,6.189s-5.985,2.082-7.98,1.128-5.2-2.6-7.546-2.776a29.029,29.029,0,0,0-9.28,1.3,18.9,18.9,0,0,1-10.583-.174c-2.949-.954-5.2-2.776-7.719-3.035s-10.5,1.648-10.842,2.6-3.556,2.949-4.077,2.342-1.474-.52-3.209,1.214-5.551,4.25-8.934,3.99-7.373-5.031-8.5-7.633-4.771-6.765-7.373-6.592-3.73-.062-4.6,1.444-1.648,1.852-4.423,1.506-14.486-1.97-16.828-1.506-8.934.056-11.709,0-7.373.291-8.067,1.245-6.332,2.168-9.367,1.995-10.929-1.1-11.883-3.24-3.643-3.092-4.337-2.138-1.214.719-1.908,2.138-3.383.4-4.338,0a1.78,1.78,0,0,0-2.6,1.071c-.261,1.3-5.118,4.337-7.633,4.164s-5.2-3.47-4.77-3.816-3.3.52-4.51,1.821-6.332,1.214-8.241,1.042-9.454,0-10.669.693-6.419,2.082-7.893,4.077-7.026,6.852-8.24,6.939-3.3-.261-3.384-1.822-.867-3.3-2.862-1.822-13.271,4.077-15.352,5.638-10.409,4.51-11.883,4.771-7.98-1.474-11.623-3.122-5.377-3.21-10.148-1.649-9.194,2.342-11.709,1.128-8.327-2.515-12.144-3.9-9.108-2.428-10.669-1.561a30.455,30.455,0,0,1-6.852,2.689c-2.516.607-1.041-.78-3.816-1.995s-4.684-1.648-8.5.694-9.715,1.648-13.792.954-16.567-5.985-17.261-7.286-2.862-3.643-5.9-2.689-5.378,4.683-9.108,4.25-3.99-2.862-6.158-2.949-3.556,1.3-5.638,1.475-3.73-.174-8.067,1.3-6.766,4.6-8.5,4.771-6.158-5.291-8.413-4.6-.955,1.128-4.337,1.128-7.025-2.255-10.148-2.689-7.373.087-8.413,1.474-6.419,2.342-8.587,1.822-8.934-1.474-12.143-.781-3.643,1.735-5.2.261-2.689-5.2-7.46-4.077-10.322,5.812-12.577,5.9-2.776-.434-5.117,1.821-7.286,6.506-11.536,6.419-6.158.312-7.373,1.24-2.949,1.883-7.807,1.362-13.618-4.771-14.4-5.985S198.292,37.3,190.745,37.3s-15.786-2.515-18.3-3.383-18.475-9.194-21.424-9.454-3.643-.347-6.592,1.735-18.562,5.812-24.286,5.2-12.23-2.081-13.878-3.816-3.036-.087-3.9.347-9.108-.174-11.536-1.3-8.24-4.193-11.883-3.7-4.423,1.013-9.021,2.314-11.363.78-13.444,1.735-1.735,2.428-12.664,3.47-11.622-1.042-15.266-1.475-8.5-3.643-13.444,1.648S8.856,37.907,5.82,37.734,0,37.3,0,37.3V75.291H1565Z" transform="translate(0 0)" fill="#a1b398"/>
    </g>
  </g>
</svg>
