<svg id="Group_355" data-name="Group 355" xmlns="http://www.w3.org/2000/svg" xmlns:xlink="http://www.w3.org/1999/xlink" width="70" height="76.695" viewBox="0 0 70 76.695">
  <defs>
    <clipPath id="clip-path">
      <rect id="Rectangle_33" data-name="Rectangle 33" width="70" height="76.695" fill="#ede2cc"/>
    </clipPath>
  </defs>
  <g id="Group_328" data-name="Group 328" clip-path="url(#clip-path)">
    <path id="Path_485" data-name="Path 485" d="M14.906,66.153a2.173,2.173,0,0,0-.475-1.036C12.387,62.7,3.15,49.861,17.049,29.792c-1.806,4.9-2.572,11.985-2.779,14.261a.435.435,0,0,0,.315.463.44.44,0,0,0,.525-.23c7.008-13.8,21.76-18.657,24.645-19.491a.841.841,0,0,0,.553-1.118C37.656,16.94,20.035,3.961,14.7.144a.767.767,0,0,0-.877-.012.752.752,0,0,0-.317.8c1.2,5.115-1.414,10.434-4.72,17.168C5.318,25.156,1.005,33.938.083,45.313c-.547,6.739,1.638,13.15,6.494,19.056a39.448,39.448,0,0,0,9.131,8.083.431.431,0,0,0,.64-.5,49.186,49.186,0,0,1-1.442-5.8" transform="translate(0 0)" fill="#ede2cc"/>
    <path id="Path_486" data-name="Path 486" d="M78.025,17.592a1.257,1.257,0,0,0-1.079-.813,1.324,1.324,0,0,0-1.258.656c-2.941,5.016-10.656,8.61-19.589,12.77-7.187,3.347-15.334,7.142-22.177,12.333-6.186,4.691-9.095,11.7-8.647,20.834A48.353,48.353,0,0,0,28.7,78.434a.383.383,0,0,0,.449.228.393.393,0,0,0,.3-.422c-.967-9.993,1.1-18.09,6.143-24.068,7.154-8.48,18.284-10.482,23.429-10.952-13.957,5.161-19.2,13.766-20.82,17.267-2.961,6.4-2.913,13.723.144,21.754a1.285,1.285,0,0,0,1.1.821c.47.035,1.274.079,2.34.079,5.188,0,16.547-1.047,25.438-9.3C75.5,66.158,79.7,54.192,79.7,38.272c0-13.443-.909-18.666-1.672-20.68" transform="translate(-9.697 -6.447)" fill="#ede2cc"/>
  </g>
</svg>
