<svg id="Group_376" data-name="Group 376" xmlns="http://www.w3.org/2000/svg" xmlns:xlink="http://www.w3.org/1999/xlink" width="30" height="32.869" viewBox="0 0 30 32.869">
  <defs>
    <clipPath id="clip-path">
      <rect id="Rectangle_33" data-name="Rectangle 33" width="30" height="32.869" fill="#a1b398"/>
    </clipPath>
  </defs>
  <g id="Group_328" data-name="Group 328" clip-path="url(#clip-path)">
    <path id="Path_485" data-name="Path 485" d="M6.389,28.352a.931.931,0,0,0-.2-.444C5.309,26.87,1.35,21.369,7.307,12.768A27.715,27.715,0,0,0,6.116,18.88a.186.186,0,0,0,.135.2.189.189,0,0,0,.225-.1c3-5.914,9.326-8,10.562-8.353a.36.36,0,0,0,.237-.479C16.139,7.26,8.587,1.7,6.3.062A.329.329,0,0,0,5.924.057.322.322,0,0,0,5.788.4C6.3,2.592,5.182,4.871,3.765,7.757A31.266,31.266,0,0,0,.036,19.42a11.178,11.178,0,0,0,2.783,8.167,16.906,16.906,0,0,0,3.913,3.464.185.185,0,0,0,.274-.212,21.08,21.08,0,0,1-.618-2.487" transform="translate(0 0)" fill="#a1b398"/>
    <path id="Path_486" data-name="Path 486" d="M47.857,17.125a.539.539,0,0,0-.462-.349.567.567,0,0,0-.539.281c-1.26,2.15-4.567,3.69-8.4,5.473a51.842,51.842,0,0,0-9.5,5.286c-2.651,2.011-3.9,5.015-3.706,8.929A20.723,20.723,0,0,0,26.717,43.2a.164.164,0,0,0,.193.1.168.168,0,0,0,.127-.181c-.414-4.283.472-7.753,2.633-10.315,3.066-3.634,7.836-4.492,10.041-4.694-5.982,2.212-8.229,5.9-8.923,7.4-1.269,2.744-1.248,5.881.062,9.323a.551.551,0,0,0,.472.352c.2.015.546.034,1,.034a16.232,16.232,0,0,0,10.9-3.986c3.547-3.293,5.346-8.421,5.346-15.244,0-5.761-.389-8-.716-8.863" transform="translate(-18.573 -12.348)" fill="#a1b398"/>
  </g>
</svg>
