<svg id="Group_368" data-name="Group 368" xmlns="http://www.w3.org/2000/svg" xmlns:xlink="http://www.w3.org/1999/xlink" width="109.525" height="120" viewBox="0 0 109.525 120">
  <defs>
    <clipPath id="clip-path">
      <rect id="Rectangle_33" data-name="Rectangle 33" width="109.525" height="120" fill="#a1b398"/>
    </clipPath>
  </defs>
  <g id="Group_328" data-name="Group 328" clip-path="url(#clip-path)">
    <path id="Path_485" data-name="Path 485" d="M23.323,103.506a3.4,3.4,0,0,0-.744-1.621c-3.2-3.789-17.651-23.871,4.1-55.271-2.826,7.666-4.024,18.753-4.348,22.313a.681.681,0,0,0,.493.724.689.689,0,0,0,.821-.359C34.606,47.7,57.687,40.1,62.2,38.8a1.316,1.316,0,0,0,.865-1.749C58.918,26.5,31.348,6.2,23,.225A1.2,1.2,0,0,0,21.625.206a1.177,1.177,0,0,0-.5,1.251c1.875,8-2.212,16.325-7.386,26.862C8.321,39.361,1.572,53.1.129,70.9-.726,81.442,2.692,91.473,10.29,100.715a61.723,61.723,0,0,0,14.287,12.647.675.675,0,0,0,1-.775,76.959,76.959,0,0,1-2.256-9.081" transform="translate(0 0)" fill="#a1b398"/>
    <path id="Path_486" data-name="Path 486" d="M107.835,18.054a1.966,1.966,0,0,0-1.688-1.273,2.071,2.071,0,0,0-1.969,1.026c-4.6,7.849-16.673,13.472-30.65,19.981-11.246,5.237-23.992,11.174-34.7,19.3-9.678,7.34-14.23,18.308-13.53,32.6a75.655,75.655,0,0,0,5.358,23.567.6.6,0,0,0,.7.356.615.615,0,0,0,.465-.66c-1.512-15.635,1.722-28.3,9.612-37.658C52.632,62.021,70.047,58.888,78.1,58.154,56.258,66.229,48.053,79.693,45.521,85.17c-4.633,10.019-4.557,21.471.225,34.037a2.011,2.011,0,0,0,1.724,1.285c.735.055,1.994.123,3.661.123,8.117,0,25.89-1.639,39.8-14.552,12.949-12.021,19.517-30.745,19.518-55.653,0-21.034-1.422-29.206-2.615-32.356" transform="translate(-0.926 -0.616)" fill="#a1b398"/>
  </g>
</svg>
