<svg xmlns="http://www.w3.org/2000/svg" xmlns:xlink="http://www.w3.org/1999/xlink" width="33.704" height="30" viewBox="0 0 33.704 30">
  <defs>
    <clipPath id="clip-path">
      <rect id="Rectangle_50" data-name="Rectangle 50" width="33.704" height="30" fill="#102111"/>
    </clipPath>
  </defs>
  <g id="Group_367" data-name="Group 367" opacity="0.3">
    <g id="Group_366" data-name="Group 366" transform="translate(0 0)" clip-path="url(#clip-path)">
      <path id="Path_493" data-name="Path 493" d="M25.185,30,21.574,27.41A27.164,27.164,0,0,0,23.8,23.745a32.209,32.209,0,0,0,2.222-5.363,16.58,16.58,0,0,0,.833-5.6,6.777,6.777,0,0,1-1.065.231,7.973,7.973,0,0,1-.88.046,7.29,7.29,0,0,1-4.444-1.435q-1.944-1.435-1.944-4.676a7.178,7.178,0,0,1,1.806-4.861A6.105,6.105,0,0,1,25.185,0q4.259-.093,6.389,2.731A11.278,11.278,0,0,1,33.7,9.725a23.6,23.6,0,0,1-.926,6.3,34.443,34.443,0,0,1-2.824,6.9A44.205,44.205,0,0,1,25.185,30M6.667,30,3.056,27.41a27.164,27.164,0,0,0,2.222-3.665A32.209,32.209,0,0,0,7.5,18.383a16.58,16.58,0,0,0,.833-5.6,6.777,6.777,0,0,1-1.065.231,7.973,7.973,0,0,1-.88.046,7.29,7.29,0,0,1-4.444-1.435Q0,10.188,0,6.947A7.178,7.178,0,0,1,1.806,2.086,6.105,6.105,0,0,1,6.667,0q4.259-.093,6.389,2.731a11.278,11.278,0,0,1,2.13,6.991,23.6,23.6,0,0,1-.926,6.3,34.443,34.443,0,0,1-2.824,6.9A44.205,44.205,0,0,1,6.667,30" transform="translate(0 -0.002)" fill="#102111"/>
    </g>
  </g>
</svg>
