<svg xmlns="http://www.w3.org/2000/svg" width="1566" height="75.014" viewBox="0 0 1566 75.014">
  <path id="Intersection_1" data-name="Intersection 1" d="M76.14,834.011a1.952,1.952,0,0,0-2.342.955c-.26.694-1.559,1.041-2.949,1.041s-3.208-1.562-3.99-2.417a8.308,8.308,0,0,0-4.077-2.268,10.272,10.272,0,0,0-4.6.781c-1.735.607-2.429-1.215-2.689-2.429a11.745,11.745,0,0,0-2.255-3.724c-.521-.6-3.47,2.075-4.337,2.857s-2.254.433-4.51.607-3.47-.52-4.945-.52-1.387,1.561-1.387,2.255-2.429.955-2.689,1.562-2.861.61-4.77.868-7.806-3.643-8.761-3.643a2.665,2.665,0,0,0-2.255,1.041c-.694.779-2.776-1.041-3.209-1.292a3,3,0,0,0-2.515-.1c-1.127.434-2.168-.693-3.209-1.561S0,818.308,0,818.308V762H1565v36.71c-.057-.005-2.814-.263-5.819-.435-3.036-.173-4.337,1.823-9.281,7.114s-9.8,2.081-13.444,1.648-4.337-2.517-15.266-1.475-10.583,2.515-12.664,3.469-8.846.435-13.444,1.735-5.377,1.822-9.021,2.314-9.455-2.574-11.884-3.7-10.671-1.733-11.535-1.3-2.252,2.082-3.9.346-8.154-3.2-13.878-3.816-21.336,3.119-24.286,5.2-3.643,2-6.593,1.735-18.91-8.586-21.424-9.455-10.754-3.382-18.3-3.382-20.382-1.215-21.164-2.429-9.542-5.464-14.4-5.985-6.592.434-7.807,1.362-3.123,1.327-7.374,1.24-9.194,4.163-11.535,6.419c-1.92,1.849-2.616,1.831-4.048,1.813-.314,0-.664-.008-1.069.008-2.255.088-7.806,4.777-12.577,5.9s-5.9-2.6-7.46-4.077-1.991-.432-5.2.261-9.975-.261-12.143-.781-7.547.435-8.587,1.823-5.29,1.908-8.413,1.473-6.766-2.688-10.148-2.688-2.082.437-4.336,1.128c-1.178.36-2.947-.956-4.615-2.273-1.526-1.2-2.97-2.409-3.8-2.327-1.734.171-4.163,3.3-8.5,4.771s-5.985,1.125-8.067,1.3-3.47,1.562-5.639,1.475-2.427-2.516-6.158-2.948-6.07,3.3-9.108,4.25-5.206-1.388-5.9-2.689-13.184-6.592-17.261-7.286-9.976-1.388-13.792.954-5.725,1.91-8.5.695-1.3-2.6-3.816-2A30.426,30.426,0,0,0,1136,800.79c-1.562.867-6.853-.176-10.67-1.562s-9.629-2.686-12.144-3.9-6.938-.433-11.709,1.128-6.505,0-10.148-1.649-10.148-3.383-11.623-3.122-9.8,3.21-11.884,4.771-13.357,4.16-15.351,5.638-2.778-.261-2.862-1.823-2.17-1.909-3.384-1.822-6.766,4.944-8.24,6.939-6.678,3.384-7.893,4.077-8.76.865-10.669.693-7.031-.259-8.241,1.042-4.94,2.166-4.51,1.821-2.255-3.643-4.77-3.816-7.372,2.864-7.633,4.164a1.836,1.836,0,0,1-.171.41,1.781,1.781,0,0,1-2.429.661c-.955-.4-3.644-1.419-4.338,0s-1.214,1.183-1.908,2.137-3.383,0-4.337-2.137-8.848-3.067-11.883-3.24-8.673,1.04-9.367,1.994-5.292,1.3-8.067,1.246-9.367-.464-11.709,0-14.054-1.16-16.828-1.507-3.553,0-4.424,1.507-2,1.271-4.6,1.444-6.246-3.99-7.373-6.592-5.117-7.374-8.5-7.634-7.2,2.256-8.934,3.991-2.688,1.821-3.209,1.214-3.735,1.39-4.077,2.342-8.322,2.859-10.841,2.6-4.77-2.081-7.719-3.035a18.9,18.9,0,0,0-10.583-.175,29.025,29.025,0,0,1-9.28,1.3c-2.346-.176-5.551-1.823-7.546-2.776s-5.809.261-7.98,1.129-8.5,3.642-11.8,6.188a12.931,12.931,0,0,1-9.628,2.312c-2.344-.348-4.254-2.17-4.944-2.312s0,1.7-2.69,4.48c-.7.726-1.3-3.645-2.516-4.48s-1.216,2.4-2.516,3.265-1.825,2-4.6,3.643c-1.819,1.079-3.677.743-6.008.409a24.859,24.859,0,0,0-4.14-.323c-4.507.087-2.946.088-3.9,1.042s-1.474,1.3-3.816.607a20.008,20.008,0,0,0-8.413-1.214,35.5,35.5,0,0,0-5.725.694c-2.342.346-10.148-7.893-13.011-9.888s-8.153-2.862-11.362-2.255-2.862,1.648-5.291,1.561-6.332-3.9-9.888-3.643-3.208.78-4.337,1.908-2.948,1.129-5.985.955-5.378-.695-7.025-.434-2.516.086-3.643-1.648-2.775-2.342-5.291-2.862-6.765-4.6-8.934-6.158-5.465-1.124-9.454-2.776-12.578-3.126-15.526-3.3a25.748,25.748,0,0,0-7.98.779c-2.342.608-2.862-1.647-3.99-1.908s-2,1.3-3.47,3.122c-1.036,1.28-2.714,1.148-4.371,1.015a13.18,13.18,0,0,0-2.048-.06c-2.169.174-4.25.608-6.592.868s-5.81-.954-7.286-.954-7.284,1.561-9.455,2.429-3.727.255-6.07-.175-4.165-2.254-5.9-2.429-3.73,1.648-5.378,2.862a22.913,22.913,0,0,1-6.245,3.037c-1.475.346-4.252-2.43-5.118-3.47s-7.455-4.163-8.934-4.423-3.557.968-4.338,2.092-4.336,2.948-6.419,4.423-6.159,5.117-7.893,5.725a2.652,2.652,0,0,1-2.419-.7,2.991,2.991,0,0,0-2.091-.777c-1.648.26-3.471,1.387-4.337.867s-5.466-1.127-8.066-1.387a18.467,18.467,0,0,0-7.113.606,71.562,71.562,0,0,1-7.807,1.562c-1.3.091-4.163-1.825-5.55-1.909s-8.679,3.036-10.67,3.816-3.037.26-3.9-.52-2.255-2.608-4.163-1.735-3.382,4.166-5.031,7.374-3.033,3.206-5.291,3.9-2.865.348-4.6,1.112a1.721,1.721,0,0,1-1.7,0c-.357-.191-.6-.382-.986,0-.78.764-3.128-.679-3.817-1.112s-4.418-1.474-6.5-.867-5.291,1.216-6.592,1.978-7.286-1.977-7.893-2.326-2.084-.261-3.73-.174-1.559-3.209-2.6-5.638a11.119,11.119,0,0,0-5.117-5.551,7.811,7.811,0,0,0-6.853.52c-2.691,1.387-3.907,2.083-4.6,2.949s-2.775-.26-3.469-.781-2-1.127-4.771-.434-3.3.607-5.117,1.648-4.515.261-6.679-.694-3.3-1.127-5.464-2.255a5.835,5.835,0,0,0-5.639,0c-1.215.781-.258.958-1.648.868s-2.169-2-5.117-3.3-13.966-2.081-15.526-1.474-5.291,2.516-8.761,3.73a11.686,11.686,0,0,1-7.113.519c-.867-.346-3.989-3.12-4.857-3.035s-2.426-1.214-3.817-1.214-11.625,3.992-13.1,5.291-2.255,2.948-3.991,3.035a79.875,79.875,0,0,0-11.19,2.255c-2,.694-2.688.607-4.857,0s-4.251-2.861-5.725-2.516-4.945,2.167-6.939,2.342-5.377-5.03-5.984-5.465-2.169.347-2.429,1.214-2.169.694-3.383.694-1.471-2.255-2.948-2.766a7.631,7.631,0,0,0-3.352.242,7.42,7.42,0,0,1-2.548.315c-.958-.3-5.117-1.088-6.159,0s-1.907.994-3.383,1.428-2.514-.78-4.076-1.214-7.373-.087-9.454,0a70.679,70.679,0,0,0-10.321,2.255,7.723,7.723,0,0,0-4.684,3.21c-1.472,2-5.814,4.076-7.373,4.163s-5.289-1.734-7.459-2.428-12.231-.26-14.4,0-7.979,2.689-9.887,3.643-10.5.781-12.664.434-11.974-3.121-14.138-2.948-9.277,3.9-12.4,4.945a23.532,23.532,0,0,1-7.027.6,25.853,25.853,0,0,0-3.555.1c-2.342.346-5.9,2.342-7.633,3.208s-4.422.954-5.984,1.041-1.649,1.647-3.73,3.208-7.546,1.124-8.413.695-8.066-3.12-10.061-3.9-5.378-.086-7.286.52-14.83-.087-17.78-.347-12.056.085-12.924,1.391-3.123,4.512-3.816,5.9a6.01,6.01,0,0,1-4.685,2.949l-.145,0C78.985,836.014,76.9,834.434,76.14,834.011Z" transform="translate(0.5 -761.5)" fill="#2c4b2e" stroke="rgba(0,0,0,0)" stroke-miterlimit="10" stroke-width="1"/>
</svg>
