<svg xmlns="http://www.w3.org/2000/svg" width="1566" height="76" viewBox="0 0 1566 76">
  <path id="Intersection_2" data-name="Intersection 2" d="M0,75V37.306s2.784.261,5.82.434,4.342-1.822,9.287-7.113,9.8-2.081,13.443-1.648,4.337,2.517,15.267,1.475,10.582-2.515,12.664-3.47,8.846-.434,13.443-1.735,5.378-1.821,9.022-2.314,9.454,2.574,11.883,3.7,10.672,1.734,11.536,1.3,2.252-2.082,3.9-.347,8.154,3.2,13.878,3.816,21.337-3.118,24.287-5.2,3.642-2,6.592-1.735,18.91,8.586,21.424,9.454,10.752,3.383,18.3,3.383,20.38,1.214,21.162,2.428,9.542,5.464,14.4,5.985,6.592-.434,7.807-1.362,3.123-1.328,7.373-1.24,9.2-4.164,11.536-6.419c1.919-1.85,2.615-1.832,4.046-1.814.315,0,.664.008,1.071-.007,2.255-.088,7.807-4.777,12.578-5.9s5.9,2.6,7.46,4.077,1.991.432,5.2-.261,9.976.261,12.144.78,7.546-.435,8.587-1.822,5.289-1.908,8.412-1.474,6.766,2.689,10.148,2.689,2.082-.437,4.337-1.128c1.176-.361,2.945.955,4.613,2.272,1.527,1.2,2.971,2.409,3.8,2.328,1.733-.171,4.163-3.3,8.5-4.771s5.985-1.125,8.067-1.3,3.47-1.562,5.638-1.475,2.428,2.516,6.158,2.949,6.07-3.3,9.108-4.25,5.206,1.388,5.9,2.689,13.184,6.592,17.261,7.286,9.976,1.388,13.792-.954,5.725-1.909,8.5-.694,1.3,2.6,3.816,2a30.5,30.5,0,0,0,6.853-2.689c1.561-.867,6.852.175,10.669,1.561s9.629,2.687,12.145,3.9,6.937.433,11.709-1.129,6.5,0,10.147,1.65,10.149,3.382,11.624,3.121,9.8-3.209,11.883-4.771,13.357-4.16,15.352-5.638,2.777.261,2.862,1.822,2.17,1.909,3.384,1.823,6.765-4.945,8.24-6.939,6.678-3.384,7.893-4.077,8.761-.865,10.669-.693,7.031.259,8.24-1.042,4.94-2.167,4.51-1.821,2.255,3.642,4.77,3.816,7.373-2.865,7.634-4.164a1.76,1.76,0,0,1,.171-.41,1.779,1.779,0,0,1,2.428-.661c.956.4,3.644,1.419,4.338,0s1.214-1.184,1.908-2.138,3.383,0,4.337,2.138,8.848,3.067,11.884,3.24,8.672-1.041,9.366-2,5.292-1.3,8.068-1.245,9.367.464,11.709,0,14.053,1.16,16.828,1.506,3.552,0,4.423-1.506,2-1.271,4.6-1.444,6.246,3.99,7.373,6.592,5.117,7.373,8.5,7.633,7.2-2.256,8.933-3.99,2.688-1.822,3.209-1.214,3.735-1.39,4.077-2.342,8.323-2.859,10.842-2.6,4.77,2.081,7.718,3.035a18.9,18.9,0,0,0,10.583.174,29.053,29.053,0,0,1,9.28-1.3c2.346.176,5.551,1.822,7.547,2.776s5.808-.261,7.979-1.128,8.5-3.643,11.8-6.189a12.933,12.933,0,0,1,9.627-2.312c2.345.348,4.254,2.171,4.945,2.312s0-1.7,2.69-4.479c.7-.726,1.3,3.645,2.515,4.479s1.216-2.4,2.516-3.264,1.824-2,4.6-3.643c1.817-1.08,3.674-.744,6-.41a24.893,24.893,0,0,0,4.143.323c4.507-.086,2.947-.088,3.9-1.042s1.473-1.3,3.816-.607a20.035,20.035,0,0,0,8.412,1.214,35.689,35.689,0,0,0,5.725-.694c2.343-.347,10.145,7.88,13.008,9.876s8.153,2.862,11.362,2.255,2.862-1.648,5.291-1.562,6.332,3.9,9.888,3.643,3.208-.78,4.337-1.908,2.948-1.128,5.985-.955,5.378.695,7.025.434,2.516-.085,3.643,1.648,2.775,2.342,5.291,2.862,6.765,4.6,8.934,6.158,5.465,1.124,9.454,2.777,12.578,3.126,15.526,3.3a25.774,25.774,0,0,0,7.98-.78c2.342-.607,2.862,1.647,3.99,1.908s2-1.3,3.47-3.122c1.035-1.28,2.713-1.147,4.371-1.016a13.174,13.174,0,0,0,2.048.061c2.169-.173,4.25-.607,6.592-.867s5.81.954,7.286.954,7.284-1.562,9.455-2.429,3.727-.256,6.07.174,4.165,2.255,5.9,2.429,3.73-1.648,5.378-2.862A22.885,22.885,0,0,1,976.07,33.4c1.475-.347,4.252,2.43,5.118,3.47s7.459,4.162,8.934,4.424,3.556-.958,4.336-2.082,4.337-2.947,6.42-4.423,6.159-5.118,7.893-5.725a2.648,2.648,0,0,1,2.419.7,3,3,0,0,0,2.091.778c1.648-.26,3.47-1.388,4.337-.868s5.466,1.127,8.066,1.387a18.432,18.432,0,0,0,7.113-.606,71.307,71.307,0,0,1,7.807-1.562c1.3-.091,4.162,1.825,5.55,1.91s8.679-3.037,10.67-3.816,3.037-.26,3.9.519,2.255,2.608,4.163,1.735,3.381-4.166,5.031-7.373,3.033-3.206,5.291-3.9,2.865-.348,4.6-1.112a1.715,1.715,0,0,1,1.7,0c.357.191.6.382.986,0,.781-.764,3.129.679,3.817,1.112s4.418,1.473,6.5.867,5.291-1.216,6.592-1.979,7.286,1.978,7.893,2.326,2.084.261,3.73.175,1.559,3.208,2.6,5.638a11.116,11.116,0,0,0,5.117,5.551,7.811,7.811,0,0,0,6.853-.52c2.691-1.387,3.907-2.082,4.6-2.948s2.775.259,3.469.78,2,1.128,4.771.435,3.3-.608,5.117-1.649,4.514-.261,6.679.695,3.3,1.127,5.464,2.254a5.829,5.829,0,0,0,5.638,0c1.215-.781.259-.957,1.649-.867s2.169,2,5.117,3.3,13.966,2.082,15.526,1.474,5.291-2.515,8.76-3.729a11.693,11.693,0,0,1,7.113-.52c.867.346,3.989,3.121,4.857,3.035s2.425,1.214,3.817,1.214,11.624-3.991,13.1-5.291,2.255-2.948,3.991-3.035a79.994,79.994,0,0,0,11.19-2.254c2-.695,2.688-.608,4.857,0s4.251,2.86,5.725,2.515,4.945-2.167,6.939-2.341,5.377,5.03,5.984,5.464,2.169-.347,2.429-1.214,2.168-.694,3.382-.694,1.472,2.256,2.949,2.766a7.644,7.644,0,0,0,3.352-.243,7.392,7.392,0,0,1,2.549-.314c.958.3,5.117,1.088,6.159,0s1.907-.994,3.383-1.427,2.514.779,4.076,1.214,7.373.086,9.454,0a70.678,70.678,0,0,0,10.321-2.255,7.713,7.713,0,0,0,4.684-3.21c1.473-1.994,5.815-4.075,7.374-4.163s5.288,1.734,7.459,2.428,12.23.26,14.4,0,7.979-2.689,9.887-3.643,10.5-.782,12.664-.434,11.974,3.12,14.138,2.948,9.277-3.9,12.4-4.944a23.455,23.455,0,0,1,7.029-.6,26,26,0,0,0,3.553-.1c2.342-.347,5.9-2.342,7.633-3.209s4.422-.954,5.984-1.04,1.649-1.647,3.73-3.209,7.547-1.124,8.413-.694,8.066,3.12,10.061,3.9,5.377.087,7.286-.52,14.831.087,17.781.347,12.056-.084,12.924-1.39,3.123-4.513,3.816-5.9A6.013,6.013,0,0,1,1483.916,0l.1,0h.08c1.943.021,4,1.582,4.76,2a1.951,1.951,0,0,0,2.342-.956c.26-.694,1.559-1.04,2.949-1.04s3.208,1.561,3.99,2.416a8.3,8.3,0,0,0,4.077,2.268,10.259,10.259,0,0,0,4.6-.781c1.735-.607,2.429,1.215,2.689,2.429a11.747,11.747,0,0,0,2.255,3.724c.521.6,3.47-2.075,4.337-2.856s2.255-.433,4.511-.608,3.47.52,4.945.52,1.387-1.561,1.387-2.254,2.429-.956,2.689-1.562,2.861-.61,4.77-.867,7.806,3.642,8.761,3.642a2.665,2.665,0,0,0,2.255-1.04c.694-.78,2.776,1.04,3.208,1.292a3,3,0,0,0,2.516.1c1.127-.434,2.168.693,3.208,1.562S1565,17.706,1565,17.706V75Z" transform="translate(0.5 0.5)" fill="#2c4b2e" stroke="rgba(0,0,0,0)" stroke-miterlimit="10" stroke-width="1"/>
</svg>
